<?xml version="1.0" encoding="UTF-8" standalone="no"?>
<!DOCTYPE svg PUBLIC "-//W3C//DTD SVG 1.1//EN"
 "http://www.w3.org/Graphics/SVG/1.1/DTD/svg11.dtd">
<!-- Generated by graphviz version 16.0.0 (20260814.1018)
 -->
<!-- Title: G Pages: 1 -->
<svg width="437pt" height="392pt"
 viewBox="0.00 0.00 437.00 392.00" xmlns="http://www.w3.org/2000/svg" xmlns:xlink="http://www.w3.org/1999/xlink">
<g id="graph0" class="graph" transform="scale(1 1) rotate(0) translate(18 374.16)">
<title>G</title>
<!-- NORMAL -->
<g id="node1" class="node"><title>Normal finality progress. Meaning: Agave tracks the highest observed final slot and resets its detector when that slot advances. Purpose: New final slots show that the network continues to make decisions.</title>
<path fill="#e8f0fd" stroke="#6587ad" stroke-width="1.2" d="M190.35,-356.16C190.35,-356.16 49.03,-356.16 49.03,-356.16 43.03,-356.16 37.03,-350.16 37.03,-344.16 37.03,-344.16 37.03,-320.64 37.03,-320.64 37.03,-314.64 43.03,-308.64 49.03,-308.64 49.03,-308.64 190.35,-308.64 190.35,-308.64 196.35,-308.64 202.35,-314.64 202.35,-320.64 202.35,-320.64 202.35,-344.16 202.35,-344.16 202.35,-350.16 196.35,-356.16 190.35,-356.16"/>
<text xml:space="preserve" text-anchor="middle" x="119.69" y="-336" font-family="Noto Sans, sans-serif" font-size="12.00" fill="#142a44">Normal progress</text>
<text xml:space="preserve" text-anchor="middle" x="119.69" y="-321.6" font-family="Noto Sans, sans-serif" font-size="12.00" fill="#142a44">Track the highest final slot</text>
</g>
<!-- NORMAL&#45;&gt;NORMAL -->
<g id="edge1" class="edge"><title>S01: New final slot. When: Agave observes a new highest final slot. Action: Reset the ten-second standstill timer. Reason: A new final slot is direct evidence that the network is making progress.</title>
<g id="a_edge1"><a xlink:href="#why-S01" xlink:title="A new final slot is direct evidence that the network is making progress." target="_self">
<path fill="none" stroke="#63788e" d="M202.93,-344.16C228.91,-343.95 249.35,-340.03 249.35,-332.4 249.35,-325.6 233.13,-321.75 211.24,-320.84"/>
<polygon fill="#63788e" stroke="#63788e" points="211.5,-318.4 204.45,-320.68 211.38,-323.3 211.5,-318.4"/>
</a>
</g>
<g id="a_edge1&#45;label"><a xlink:href="#why-S01" xlink:title="S01: New final slot" target="_self">
<text xml:space="preserve" text-anchor="middle" x="290.76" y="-329.4" font-family="Noto Sans, sans-serif" font-size="10.00" fill="#425b71">S01: New final slot</text>
</a>
</g>
</g>
<!-- STALL -->
<g id="node2" class="node"><title>Standstill recovery. Meaning: Agave has seen no new final slot for ten seconds. It sends stored votes and certificates again. Purpose: Missing messages or long delays can prevent progress. Repetition gives other validators another opportunity to get the evidence.</title>
<path fill="#fff0d6" stroke="#b47821" stroke-width="1.2" d="M227.38,-230.64C227.38,-230.64 12,-230.64 12,-230.64 6,-230.64 0,-224.64 0,-218.64 0,-218.64 0,-166.32 0,-166.32 0,-160.32 6,-154.32 12,-154.32 12,-154.32 227.38,-154.32 227.38,-154.32 233.38,-154.32 239.38,-160.32 239.38,-166.32 239.38,-166.32 239.38,-218.64 239.38,-218.64 239.38,-224.64 233.38,-230.64 227.38,-230.64"/>
<text xml:space="preserve" text-anchor="middle" x="119.69" y="-210.48" font-family="Noto Sans, sans-serif" font-size="12.00" fill="#142a44">No new final slot</text>
<text xml:space="preserve" text-anchor="middle" x="119.69" y="-196.08" font-family="Noto Sans, sans-serif" font-size="12.00" fill="#142a44">Standstill</text>
<text xml:space="preserve" text-anchor="middle" x="119.69" y="-181.68" font-family="Noto Sans, sans-serif" font-size="12.00" fill="#142a44">Remember slot f</text>
<text xml:space="preserve" text-anchor="middle" x="119.69" y="-167.28" font-family="Noto Sans, sans-serif" font-size="12.00" fill="#142a44">Send stored votes and certificates again</text>
</g>
<!-- NORMAL&#45;&gt;STALL -->
<g id="edge2" class="edge"><title>S02: Ten seconds without progress. When: No new final slot appears for ten seconds. Action: Record slot f. Send stored votes above f and related certificates again. Reason: Other validators can lack the evidence needed for the next decision.</title>
<g id="a_edge2"><a xlink:href="#why-S02" xlink:title="Other validators can lack the evidence needed for the next decision." target="_self">
<path fill="none" stroke="#63788e" d="M78.03,-308.12C54.84,-295.17 30.62,-281.64 30.62,-281.64 30.62,-281.64 30.62,-257.64 30.62,-257.64 30.62,-257.64 44.15,-247.9 60.66,-236.01"/>
<polygon fill="#63788e" stroke="#63788e" points="61.89,-238.14 66.14,-232.06 59.02,-234.16 61.89,-238.14"/>
</a>
</g>
<g id="a_edge2&#45;label"><a xlink:href="#why-S02" xlink:title="S02: Ten seconds without\nprogress" target="_self">
<text xml:space="preserve" text-anchor="middle" x="88.16" y="-272.64" font-family="Noto Sans, sans-serif" font-size="10.00" fill="#425b71">S02: Ten seconds without</text>
<text xml:space="preserve" text-anchor="middle" x="88.16" y="-260.64" font-family="Noto Sans, sans-serif" font-size="10.00" fill="#425b71">progress</text>
</a>
</g>
</g>
<!-- STALL&#45;&gt;NORMAL -->
<g id="edge6" class="edge"><title>S06: A later slot is final. When: Agave observes a final slot above f. Action: Clear standstill and return to normal progress tracking. Reason: The new final slot proves that the network has passed the point where progress stopped.</title>
<g id="a_edge6"><a xlink:href="#why-S06" xlink:title="The new final slot proves that the network has passed the point where progress stopped." target="_self">
<path fill="none" stroke="#18865e" d="M139.08,-231.17C146.26,-245.14 152.69,-257.64 152.69,-257.64 152.69,-257.64 152.69,-281.64 152.69,-281.64 152.69,-281.64 146.61,-290.81 139.66,-301.28"/>
<polygon fill="#18865e" stroke="#18865e" points="137.7,-299.82 135.87,-307.01 141.78,-302.53 137.7,-299.82"/>
</a>
</g>
<g id="a_edge6&#45;label"><a xlink:href="#why-S06" xlink:title="S06: A later slot is final" target="_self">
<text xml:space="preserve" text-anchor="middle" x="203.55" y="-266.64" font-family="Noto Sans, sans-serif" font-size="10.00" fill="#425b71">S06: A later slot is final</text>
</a>
</g>
</g>
<!-- STALL&#45;&gt;STALL -->
<g id="edge3" class="edge"><title>S03: Another ten seconds. When: The network still has no new final slot after the next interval. Action: Send the required votes and certificates again. Reason: One retransmission can also be lost or arrive too late. Repetition gives recovery another opportunity.</title>
<g id="a_edge3"><a xlink:href="#why-S03" xlink:title="One retransmission can also be lost or arrive too late. Repetition gives recovery another opportunity." target="_self">
<path fill="none" stroke="#63788e" d="M239.94,-206.58C266.79,-205.28 286.38,-200.58 286.38,-192.48 286.38,-185.23 270.7,-180.71 248.18,-178.91"/>
<polygon fill="#63788e" stroke="#63788e" points="248.59,-176.48 241.45,-178.48 248.28,-181.37 248.59,-176.48"/>
</a>
</g>
<g id="a_edge3&#45;label"><a xlink:href="#why-S03" xlink:title="S03: Another ten seconds" target="_self">
<text xml:space="preserve" text-anchor="middle" x="343.92" y="-189.48" font-family="Noto Sans, sans-serif" font-size="10.00" fill="#425b71">S03: Another ten seconds</text>
</a>
</g>
</g>
<!-- WINDOW -->
<g id="node3" class="node"><title>Longer allowance for a new timer. Meaning: While standstill is active, Agave scales the network allowance for a newly created window timer. Purpose: The allowance grows by 1.05 per window since the recorded slot, up to one hour. The block production interval stays unchanged.</title>
<path fill="#e8f0fd" stroke="#6587ad" stroke-width="1.2" d="M218.03,-76.32C218.03,-76.32 21.36,-76.32 21.36,-76.32 15.36,-76.32 9.36,-70.32 9.36,-64.32 9.36,-64.32 9.36,-12 9.36,-12 9.36,-6 15.36,0 21.36,0 21.36,0 218.03,0 218.03,0 224.03,0 230.03,-6 230.03,-12 230.03,-12 230.03,-64.32 230.03,-64.32 230.03,-70.32 224.03,-76.32 218.03,-76.32"/>
<text xml:space="preserve" text-anchor="middle" x="119.69" y="-56.16" font-family="Noto Sans, sans-serif" font-size="12.00" fill="#142a44">Create a new window timer</text>
<text xml:space="preserve" text-anchor="middle" x="119.69" y="-41.76" font-family="Noto Sans, sans-serif" font-size="12.00" fill="#142a44">Network allowance x 1.05^k</text>
<text xml:space="preserve" text-anchor="middle" x="119.69" y="-27.36" font-family="Noto Sans, sans-serif" font-size="12.00" fill="#142a44">k = windows since f</text>
<text xml:space="preserve" text-anchor="middle" x="119.69" y="-12.96" font-family="Noto Sans, sans-serif" font-size="12.00" fill="#142a44">Maximum network allowance: 1 hour</text>
</g>
<!-- STALL&#45;&gt;WINDOW -->
<g id="edge4" class="edge"><title>S04: New window needs a timer. When: Agave creates a timer while standstill is active. Action: Increase the network allowance according to the number of windows since f. Reason: More time can prevent repeated skips when the earlier allowance was too short.</title>
<g id="a_edge4"><a xlink:href="#why-S04" xlink:title="More time can prevent repeated skips when the earlier allowance was too short." target="_self">
<path fill="none" stroke="#63788e" d="M66.32,-153.79C46.55,-139.82 28.84,-127.32 28.84,-127.32 28.84,-127.32 28.84,-103.32 28.84,-103.32 28.84,-103.32 42.64,-93.58 59.48,-81.69"/>
<polygon fill="#63788e" stroke="#63788e" points="60.78,-83.77 65.08,-77.73 57.95,-79.76 60.78,-83.77"/>
</a>
</g>
<g id="a_edge4&#45;label"><a xlink:href="#why-S04" xlink:title="S04: New window needs a\ntimer" target="_self">
<text xml:space="preserve" text-anchor="middle" x="87.77" y="-118.32" font-family="Noto Sans, sans-serif" font-size="10.00" fill="#425b71">S04: New window needs a</text>
<text xml:space="preserve" text-anchor="middle" x="87.77" y="-106.32" font-family="Noto Sans, sans-serif" font-size="10.00" fill="#425b71">timer</text>
</a>
</g>
</g>
<!-- WINDOW&#45;&gt;STALL -->
<g id="edge5" class="edge"><title>S05: Timer created. When: The new timer has its adjusted network allowance. Action: Continue standstill monitoring. Keep the normal block and first-data intervals. Reason: Creating a longer timer does not itself prove that final decisions have resumed.</title>
<g id="a_edge5"><a xlink:href="#why-S05" xlink:title="Creating a longer timer does not itself prove that final decisions have resumed." target="_self">
<path fill="none" stroke="#63788e" d="M139.67,-76.85C147.07,-90.82 153.69,-103.32 153.69,-103.32 153.69,-103.32 153.69,-127.32 153.69,-127.32 153.69,-127.32 149.23,-135.73 143.55,-146.46"/>
<polygon fill="#63788e" stroke="#63788e" points="141.49,-145.12 140.37,-152.45 145.82,-147.41 141.49,-145.12"/>
</a>
</g>
<g id="a_edge5&#45;label"><a xlink:href="#why-S05" xlink:title="S05: Timer created" target="_self">
<text xml:space="preserve" text-anchor="middle" x="196.21" y="-112.32" font-family="Noto Sans, sans-serif" font-size="10.00" fill="#425b71">S05: Timer created</text>
</a>
</g>
</g>
</g>
</svg>
